<svg xmlns="http://www.w3.org/2000/svg" viewBox="0 0 2400 3200" width="2400" height="3200">
  <defs>
    <filter id="painted" x="-2%" y="-2%" width="104%" height="104%">
      <feTurbulence type="turbulence" baseFrequency="0.012" numOctaves="3" seed="150" result="noise"/>
      <feDisplacementMap in="SourceGraphic" in2="noise" scale="4" xChannelSelector="R" yChannelSelector="G"/>
    </filter>
    <filter id="grain">
      <feTurbulence type="fractalNoise" baseFrequency="0.6" numOctaves="3" stitchTiles="stitch"/>
      <feColorMatrix type="saturate" values="0"/>
      <feBlend in="SourceGraphic" mode="multiply" result="blend"/>
      <feComponentTransfer>
        <feFuncA type="linear" slope="0.05"/>
      </feComponentTransfer>
      <feBlend in="SourceGraphic" mode="normal"/>
    </filter>
    <linearGradient id="fogGrad" x1="0" y1="0" x2="0" y2="1">
      <stop offset="0%" stop-color="#c8d0c0"/>
      <stop offset="100%" stop-color="#a0a898"/>
    </linearGradient>
  </defs>
  
  <rect width="2400" height="3200" fill="url(#fogGrad)"/>
  
  <g filter="url(#painted)">
    <!-- Tree row 1 - most distant, lightest -->
    <path d="M 100 800 L 120 650 L 140 800 M 250 800 L 275 620 L 300 800 M 420 800 L 445 600 L 470 800 M 580 800 L 605 640 L 630 800 M 750 800 L 780 610 L 810 800 M 920 800 L 945 630 L 970 800 M 1080 800 L 1110 590 L 1140 800 M 1250 800 L 1275 620 L 1300 800 M 1400 800 L 1430 640 L 1460 800 M 1570 800 L 1600 600 L 1630 800 M 1740 800 L 1765 630 L 1790 800 M 1900 800 L 1930 610 L 1960 800 M 2080 800 L 2105 640 L 2130 800 M 2250 800 L 2275 620 L 2300 800" 
          stroke="#98a090" stroke-width="5" fill="none" opacity="0.3" stroke-linecap="round" stroke-linejoin="round"/>
    
    <!-- Tree row 2 -->
    <path d="M 50 1050 L 80 850 L 110 1050 M 200 1050 L 235 820 L 270 1050 M 370 1050 L 400 840 L 430 1050 M 530 1050 L 560 810 L 590 1050 M 700 1050 L 735 830 L 770 1050 M 860 1050 L 895 800 L 930 1050 M 1030 1050 L 1060 820 L 1090 1050 M 1190 1050 L 1225 840 L 1260 1050 M 1350 1050 L 1385 810 L 1420 1050 M 1520 1050 L 1550 830 L 1580 1050 M 1680 1050 L 1715 800 L 1750 1050 M 1850 1050 L 1880 820 L 1910 1050 M 2020 1050 L 2050 840 L 2080 1050 M 2190 1050 L 2220 810 L 2250 1050 M 2350 1050 L 2380 830 L 2410 1050"
          stroke="#889080" stroke-width="6" fill="none" opacity="0.35" stroke-linecap="round" stroke-linejoin="round"/>
    
    <!-- Tree row 3 -->
    <path d="M 80 1350 L 115 1100 L 150 1350 M 250 1350 L 290 1070 L 330 1350 M 430 1350 L 465 1090 L 500 1350 M 600 1350 L 640 1060 L 680 1350 M 780 1350 L 815 1080 L 850 1350 M 950 1350 L 990 1050 L 1030 1350 M 1130 1350 L 1165 1070 L 1200 1350 M 1300 1350 L 1340 1090 L 1380 1350 M 1480 1350 L 1515 1060 L 1550 1350 M 1650 1350 L 1690 1080 L 1730 1350 M 1830 1350 L 1865 1050 L 1900 1350 M 2000 1350 L 2040 1070 L 2080 1350 M 2180 1350 L 2215 1090 L 2250 1350"
          stroke="#788870" stroke-width="7" fill="none" opacity="0.4" stroke-linecap="round" stroke-linejoin="round"/>
    
    <!-- Tree row 4 -->
    <path d="M 30 1700 L 75 1380 L 120 1700 M 220 1700 L 270 1350 L 320 1700 M 420 1700 L 465 1370 L 510 1700 M 610 1700 L 660 1340 L 710 1700 M 810 1700 L 855 1360 L 900 1700 M 1000 1700 L 1050 1330 L 1100 1700 M 1200 1700 L 1245 1350 L 1290 1700 M 1390 1700 L 1440 1370 L 1490 1700 M 1590 1700 L 1635 1340 L 1680 1700 M 1780 1700 L 1830 1360 L 1880 1700 M 1980 1700 L 2025 1330 L 2070 1700 M 2170 1700 L 2220 1350 L 2270 1700"
          stroke="#687860" stroke-width="8" fill="none" opacity="0.45" stroke-linecap="round" stroke-linejoin="round"/>
    
    <!-- Tree row 5 -->
    <path d="M 60 2100 L 115 1700 L 170 2100 M 280 2100 L 340 1680 L 400 2100 M 510 2100 L 565 1700 L 620 2100 M 730 2100 L 790 1670 L 850 2100 M 960 2100 L 1015 1690 L 1070 2100 M 1180 2100 L 1240 1680 L 1300 2100 M 1410 2100 L 1465 1700 L 1520 2100 M 1630 2100 L 1690 1670 L 1750 2100 M 1860 2100 L 1915 1690 L 1970 2100 M 2080 2100 L 2140 1680 L 2200 2100"
          stroke="#586850" stroke-width="9" fill="none" opacity="0.5" stroke-linecap="round" stroke-linejoin="round"/>
    
    <!-- Tree row 6 -->
    <path d="M 20 2550 L 90 2050 L 160 2550 M 280 2550 L 355 2030 L 430 2550 M 550 2550 L 620 2050 L 690 2550 M 810 2550 L 885 2020 L 960 2550 M 1080 2550 L 1150 2040 L 1220 2550 M 1340 2550 L 1415 2030 L 1490 2550 M 1610 2550 L 1680 2050 L 1750 2550 M 1870 2550 L 1945 2020 L 2020 2550 M 2140 2550 L 2210 2040 L 2280 2550"
          stroke="#485840" stroke-width="10" fill="none" opacity="0.55" stroke-linecap="round" stroke-linejoin="round"/>
    
    <!-- Tree row 7 - nearest, darkest -->
    <path d="M -50 3050 L 50 2450 L 150 3050 M 250 3050 L 355 2420 L 460 3050 M 560 3050 L 660 2440 L 760 3050 M 860 3050 L 965 2410 L 1070 3050 M 1170 3050 L 1270 2430 L 1370 3050 M 1470 3050 L 1575 2420 L 1680 3050 M 1780 3050 L 1880 2440 L 1980 3050 M 2080 3050 L 2185 2410 L 2290 3050"
          stroke="#384830" stroke-width="12" fill="none" opacity="0.6" stroke-linecap="round" stroke-linejoin="round"/>
  </g>
  
  <rect width="2400" height="3200" filter="url(#grain)" opacity="0.2"/>
</svg>